# xmcd CD database file
#
# Track frame offsets:
#	150
#	20202
#	31940
#	45427
#	59682
#	79316
#	90890
#	105073
#	118600
#	133658
#	149592
#	166600
#	190126
#	207016
#	225097
#	239631
#	268799
#	279597
#	301927
#	313319
#	331820
#
# Disc length: 4749 seconds
#
# Revision: 0
# Processed by: cddbd v1.5.2PL0 Copyright (c) Steve Scherf et al.
# Submitted via: CDex 1.70beta2
#
DISCID=1b128b15
DTITLE=Various Artist - L'histoire du saxophone jazz - CD 8
DYEAR=1977
DGENRE=Jazz
TTITLE0=Zoot Sims_Al Cohn - Tangerine
TTITLE1=Red Prysock - Soft
TTITLE2=Ben Webster - The Iron Hat
TTITLE3=Arnett Cobb - Operation
TTITLE4=Jimmy Heath - Turnpike
TTITLE5=Big Jay McNeely - Nervous, Man, Nervous
TTITLE6=Zoot Sims - Zoot
TTITLE7=Sonny Rollins - The Stopper
TTITLE8=Paul Gonsalves - Don't Blame Me
TTITLE9=Phil Urso - Wizzard's Gizzard
TTITLE10=Frank Foster - Bumpkins
TTITLE11=Sonny Rollins - Oleo
TTITLE12=Bob Cooper - Excursion
TTITLE13=Sonny Rollins - Silk 'n Satin
TTITLE14=Frank Foster_Frank Wess - Two Franks
TTITLE15=Stan Getz - Pernod
TTITLE16=Al Cohn - Lullaby Of Birdland
TTITLE17=Harold Land - Lands End
TTITLE18=Bobb Jaspar - Nory's Kick
TTITLE19=Jack Montrose - Paradox
TTITLE20=Bill Holman - Toot Sweet
EXTD=YEAR: 1977
EXTT0=
EXTT1=
EXTT2=
EXTT3=
EXTT4=
EXTT5=
EXTT6=
EXTT7=
EXTT8=
EXTT9=
EXTT10=
EXTT11=
EXTT12=
EXTT13=
EXTT14=
EXTT15=
EXTT16=
EXTT17=
EXTT18=
EXTT19=
EXTT20=
PLAYORDER=
